<svg xmlns="http://www.w3.org/2000/svg" width="199" height="92.505" viewBox="0 0 199 92.505">
  <g id="Group_4" data-name="Group 4" transform="translate(-52.852 -25)">
    <g id="Group_3" data-name="Group 3" transform="translate(52.852 25)">
      <g id="Group_2" data-name="Group 2" transform="translate(0 0)">
        <g id="Group_1" data-name="Group 1" transform="translate(72.491)">
          <path id="Path_1" data-name="Path 1" d="M370.1,148.293a23.169,23.169,0,0,0-22.9,22.9c0,12.44,10.458,21.981,22.9,21.981a21.609,21.609,0,0,0,21.981-21.981C392.086,158.754,382.544,148.293,370.1,148.293Zm11.907,26.561a12.018,12.018,0,0,1-3.664,8.243c-.07.07.066.85,0,.916-2.222,2.074-4.971,2.748-8.243,2.748a12.864,12.864,0,0,1-8.243-2.748c-.136-.114.136.125,0,0a14.23,14.23,0,0,1-4.579-9.159c-.059-.848.581-1.334.916-1.832a2.46,2.46,0,0,1,1.832-.916c.847,0,1.279-.108,1.832.916a13.087,13.087,0,0,0,3.664,4.579c.475.31.374.724.916.916.91.332,2.566,0,3.664,0,1.253,0,1.764.4,2.748,0a13.274,13.274,0,0,0,1.832-.916c1.257-.859,1.841-2.741,2.748-4.579.641-1.024,1.926-.916,2.748-.916.671,0,.562.418.916.916S382.1,174.006,382.011,174.854Z" transform="translate(-347.207 -148.293)" fill="#fec340"/>
          <path id="Path_2" data-name="Path 2" d="M399.984,215.4a12.018,12.018,0,0,1-3.664,8.243c-.07.07.066.85,0,.916-2.222,2.074-4.971,2.748-8.243,2.748a12.864,12.864,0,0,1-8.243-2.748c-.136-.114.136.125,0,0a14.229,14.229,0,0,1-4.58-9.159c-.059-.847.581-1.334.916-1.832a2.46,2.46,0,0,1,1.832-.916c.847,0,1.279-.108,1.832.916a13.086,13.086,0,0,0,3.664,4.579c.475.31.374.724.916.916.91.332,2.565,0,3.664,0,1.253,0,1.764.4,2.748,0a13.274,13.274,0,0,0,1.832-.916c1.256-.859,1.841-2.741,2.748-4.579.641-1.024,1.926-.916,2.748-.916.671,0,.562.418.916.916S400.069,214.553,399.984,215.4Z" transform="translate(-365.18 -188.839)" fill="#fff"/>
        </g>
        <path id="Path_3" data-name="Path 3" d="M228.689,320.56l-1.832-.916c-.522-.174-.655-.466-.916-.916s-.916-.845-.916-1.832V294.915c0-4.033-.483-6.736-2.748-9.159a12.064,12.064,0,0,0-9.159-3.664,18.768,18.768,0,0,0-8.243,1.832c-2.464,1.239-4.973,3.475-8.243,6.411a11.647,11.647,0,0,0-2.748-4.58,12.067,12.067,0,0,0-9.159-3.664,15.238,15.238,0,0,0-7.327,1.832,39.15,39.15,0,0,0-8.243,5.5V284.84a2.406,2.406,0,0,0-.916-1.832,2.1,2.1,0,0,0-1.832-.916,12.471,12.471,0,0,0-2.748,0c-.726.2-1.587.481-2.748.916l-8.243,3.664a5.438,5.438,0,0,0-1.832.916c-.3.319,0,.392,0,.916,0,.435-.248.627,0,.916a4.807,4.807,0,0,0,1.832.916H154.5c.493.087.683.583.916.916a3.466,3.466,0,0,1,.916,1.832V316.9c0,.928-.67,1.4-.916,1.832a1.629,1.629,0,0,1-.916.916l-1.832.916c-.58.2-.655.581-.916.916s-.916.453-.916.916c0,.611.509.568.916.916a2.758,2.758,0,0,0,1.832.916h17.4c1.741,0,2.748-.467,2.748-1.832,0-.841-.9-1.425-1.832-1.832l-.916-.916c-.521-.2-1.584-.494-1.832-.916s0-.876,0-1.832V293.083a19.417,19.417,0,0,1,4.579-2.748,8.736,8.736,0,0,1,3.664-.916,5.813,5.813,0,0,1,4.579,1.832,7.751,7.751,0,0,1,1.832,5.5V316.9c0,.987.246,1.4,0,1.832s-.364.714-.916.916l-1.832.916c-.928.406-1.832.991-1.832,1.832,0,1.365,1.007,1.832,2.748,1.832h17.4c1.712,0,1.832-.467,1.832-1.832,0-.841-.016-1.425-.916-1.832l-1.832-.916c-.552-.2-.653-.482-.916-.916s0-.845,0-1.832V294.915a7.978,7.978,0,0,0,0-.916v-.916a19.427,19.427,0,0,1,4.579-2.748,8.735,8.735,0,0,1,3.664-.916,5.792,5.792,0,0,1,4.579,1.832,7.812,7.812,0,0,1,1.832,5.5V316.9c0,.987.233,1.4,0,1.832s-1.279.714-1.832.916l-.916.916c-.928.406-1.832.991-1.832,1.832,0,1.365,1.007,1.832,2.748,1.832h17.4a2.7,2.7,0,0,0,1.832-.916c.406-.347,0-.305,0-.916,0-.463.276-.583,0-.916S229.241,320.764,228.689,320.56Z" transform="translate(-150.702 -232.634)" fill="#409ccd"/>
        <path id="Path_4" data-name="Path 4" d="M400.956,320.843l-.916-.916c-.521-.174-.668-.481-.916-.916s-.916-.876-.916-1.832V285.123a2.407,2.407,0,0,0-.916-1.832,2.031,2.031,0,0,0-1.832-.916,5.983,5.983,0,0,0-1.832,0,26.278,26.278,0,0,0-2.748.916l-8.243,3.664a5.433,5.433,0,0,0-1.832.916c-.3.32-.916.392-.916.916,0,.435.668.627.916.916s.364.8.916.916h1.832c.493.087.683.583.916.916a3.463,3.463,0,0,1,.916,1.832v23.813c0,.928-.67,1.4-.916,1.832a1.63,1.63,0,0,1-.916.916l-1.832.916c-.58.2-.655.581-.916.916s0,.453,0,.916c0,.611-.406.569,0,.916a2.759,2.759,0,0,0,1.832.916h18.318a2.8,2.8,0,0,0,1.832-.916c.42-.347,0-.305,0-.916,0-.463.276-.583,0-.916A5.55,5.55,0,0,0,400.956,320.843Z" transform="translate(-295.493 -232.917)" fill="#409ccd"/>
        <path id="Path_5" data-name="Path 5" d="M506.086,320.56l-.916-.916c-.522-.174-1.569-.466-1.832-.916s0-.845,0-1.832V294.915a12.33,12.33,0,0,0-3.664-9.159,12.082,12.082,0,0,0-9.159-3.664,15.36,15.36,0,0,0-7.327,1.832,38.324,38.324,0,0,0-8.243,5.5V284.84a2.4,2.4,0,0,0-.916-1.832,2.1,2.1,0,0,0-1.832-.916,12.471,12.471,0,0,0-2.748,0c-.726.2-1.587.481-2.748.916l-8.243,3.664c-.812.291-.612.6-.916.916s-.916.392-.916.916c0,.435-.248.627,0,.916a4.827,4.827,0,0,0,1.832.916h1.832c.493.087.683.583.916.916a3.479,3.479,0,0,1,.916,1.832V316.9c0,.928-.67,1.4-.916,1.832a1.63,1.63,0,0,1-.916.916l-1.832.916c-.583.2-.655.581-.916.916s-.916.453-.916.916c0,.611.509.568.916.916a2.763,2.763,0,0,0,1.832.916h17.4c1.741,0,2.748-.467,2.748-1.832,0-.841-.9-1.425-1.832-1.832l-.916-.916c-.524-.2-1.586-.494-1.832-.916s0-.876,0-1.832V293.083a18.351,18.351,0,0,1,4.579-2.748,8.935,8.935,0,0,1,3.664-.916c2,0,4.3.613,5.5,1.832a7.56,7.56,0,0,1,1.832,5.5V316.9c0,.987-.683,1.4-.916,1.832a1.506,1.506,0,0,1-.916.916l-1.832.916c-.928.406-.916.991-.916,1.832,0,1.365,1.007,1.832,2.748,1.832H505.17a2.693,2.693,0,0,0,1.832-.916c.406-.347.916-.305.916-.916,0-.463.276-.583,0-.916A5.841,5.841,0,0,0,506.086,320.56Z" transform="translate(-343.838 -232.634)" fill="#409ccd"/>
        <path id="Path_6" data-name="Path 6" d="M637.165,297.345c-.261-.319-.453-.916-.916-.916a2.925,2.925,0,0,0-1.832.916c-.348.45-.566.348-.916.916s-.32,1.382-.916,1.832a4.91,4.91,0,0,1-2.748.916,4.722,4.722,0,0,1-3.664-1.832c-.782-1.073-.916-2.52-.916-4.579V270.784h6.411a9.581,9.581,0,0,0,4.58-.916,1.823,1.823,0,0,0,.916-1.832,3.036,3.036,0,0,0-.916-1.832c-.406-.3-1.078,0-1.832,0h-9.159v-8.243a2.915,2.915,0,0,0-.916-1.832c-.363-.406-.249-.916-.916-.916-.58,0-1.223.553-1.832.916a8.057,8.057,0,0,0-1.832,1.832l-5.5,6.411c-.55.7-1.351.655-1.832.916s-.248.916-.916.916h-2.748c-.7,0-1.4-.332-1.832,0a2.825,2.825,0,0,0-.916,1.832c0,.465.612.6.916.916s.221.685.916.916l1.832.916a4.411,4.411,0,0,1,1.832.916,3.14,3.14,0,0,1,.916,1.832v22.9c0,3.916.57,7.231,2.748,9.159s5.3,2.748,9.159,2.748c2.553,0,4.436.014,6.411-.916a11.772,11.772,0,0,0,4.58-3.664,10.006,10.006,0,0,0,1.832-5.5C637.165,297.535,637.426,297.664,637.165,297.345Z" transform="translate(-438.281 -215.83)" fill="#409ccd"/>
      </g>
    </g>
  </g>
</svg>
